# xmcd CD Database Entry
#
# Track frame offsets:
# 150
# 15350
# 29697
# 39782
# 52507
# 67622
# 77707
# 100360
# 117550
# 132405
# 146982
# 164402
# 174887
# 186892
#
# Disc length: 2826 seconds
#
# Revision: 1
# Processed by: cddbd v1.4PL0 Copyright (c) Steve Scherf et al.
# Submitted via: RSJCDWriter_freedb_lib_OS/2 1.02
#
DISCID=b00b080e
DTITLE=Sam Rocket and his Blues Prisoners - Black and White
DYEAR=1900
DGENRE=
TTITLE0=No Goodbye
TTITLE1=Bad Luck
TTITLE2=Down The Road
TTITLE3=Isabella
TTITLE4=Jump With You Baby
TTITLE5=Rocket Fuel
TTITLE6=Shotgun Blues
TTITLE7=Jumpin' From Love To Love
TTITLE8=Vicious Vicious Vodka
TTITLE9=One Way Out
TTITLE10=Dee's Boogie
TTITLE11=My Love Is True
TTITLE12=Hey Ba-Be-Ree-Bop
TTITLE13=Dancin' And Shakin'
EXTD=p 2001 Last Buzz Record Co.\nBUZZ-8023
EXTT0=
EXTT1=
EXTT2=
EXTT3=
EXTT4=
EXTT5=
EXTT6=
EXTT7=
EXTT8=
EXTT9=
EXTT10=
EXTT11=
EXTT12=
EXTT13=
PLAYORDER=
